<svg width="200" height="200" viewBox="0 0 200 200" fill="none" xmlns="http://www.w3.org/2000/svg">
<path d="M170.094 30.8266C189.168 45.7113 200.395 72.9097 199.989 99.4316C199.448 126.089 187.138 152.205 168.065 167.225C148.856 182.109 122.749 185.898 99.4816 183.192C76.0794 180.35 55.5179 171.013 36.8502 155.993C18.0473 141.109 1.13816 120.541 0.0559817 98.8903C-1.0262 77.2398 13.7185 54.3715 32.3862 39.6221C51.0539 24.7374 73.915 17.8363 98.8052 15.6713C123.695 13.5062 150.885 16.0772 170.094 30.8266Z" fill="#4A5568"/>
<path d="M54.096 119.632C53.84 119.632 53.4987 119.504 53.072 119.248L29.712 103.376C29.072 102.949 28.6027 102.523 28.304 102.096C28.0053 101.669 27.856 101.157 27.856 100.56V98.512C27.856 97.9147 27.984 97.424 28.24 97.04C28.5387 96.656 29.0293 96.2293 29.712 95.76L53.072 79.888C53.4987 79.632 53.84 79.504 54.096 79.504C54.48 79.504 54.8 79.632 55.056 79.888C55.312 80.1013 55.44 80.4213 55.44 80.848V88.08C55.44 88.72 55.2693 89.232 54.928 89.616C54.6293 89.9573 54.2027 90.2987 53.648 90.64L40.016 99.536L53.648 108.496C54.2453 108.923 54.6933 109.307 54.992 109.648C55.2907 109.947 55.44 110.395 55.44 110.992V118.288C55.44 118.672 55.312 118.992 55.056 119.248C54.8 119.504 54.48 119.632 54.096 119.632ZM65.1395 122C64.7128 122 64.3288 121.851 63.9875 121.552C63.6888 121.211 63.5395 120.827 63.5395 120.4V78.864C63.5395 78.3947 63.6888 78.0107 63.9875 77.712C64.2862 77.3707 64.6702 77.2 65.1395 77.2H81.9715C88.2862 77.2 93.1928 78.7147 96.6915 81.744C100.19 84.7307 102.025 89.04 102.196 94.672C102.238 95.9093 102.26 97.552 102.26 99.6C102.26 101.648 102.238 103.269 102.196 104.464C101.769 116.155 95.1342 122 82.2915 122H65.1395ZM81.9715 112.4C84.6595 112.4 86.6435 111.76 87.9235 110.48C89.2035 109.2 89.8862 107.152 89.9715 104.336C90.0568 103.099 90.0995 101.499 90.0995 99.536C90.0995 97.5733 90.0568 95.9947 89.9715 94.8C89.8862 92.0693 89.1395 90.064 87.7315 88.784C86.3662 87.4613 84.3395 86.8 81.6515 86.8H75.5715V112.4H81.9715ZM106.254 127.376C105.912 127.376 105.592 127.227 105.294 126.928C105.038 126.672 104.91 126.373 104.91 126.032C104.91 125.819 104.952 125.605 105.038 125.392L126.67 73.296C127.139 72.2293 127.928 71.696 129.038 71.696H135.118C135.502 71.696 135.822 71.8453 136.078 72.144C136.334 72.4 136.462 72.6987 136.462 73.04C136.462 73.2533 136.419 73.4667 136.333 73.68L114.574 125.776C114.147 126.843 113.358 127.376 112.206 127.376H106.254ZM143.058 119.632C142.674 119.632 142.354 119.504 142.098 119.248C141.842 118.992 141.714 118.672 141.714 118.288V110.992C141.714 110.395 141.863 109.947 142.161 109.648C142.46 109.307 142.908 108.923 143.506 108.496L157.138 99.536L143.506 90.64C142.951 90.2987 142.503 89.9573 142.161 89.616C141.863 89.232 141.714 88.72 141.714 88.08V80.848C141.714 80.4213 141.842 80.1013 142.098 79.888C142.354 79.632 142.674 79.504 143.058 79.504C143.314 79.504 143.655 79.632 144.082 79.888L167.442 95.76C168.124 96.2293 168.594 96.656 168.85 97.04C169.148 97.424 169.298 97.9147 169.298 98.512V100.56C169.298 101.157 169.148 101.669 168.85 102.096C168.551 102.523 168.082 102.949 167.442 103.376L144.082 119.248C143.655 119.504 143.314 119.632 143.058 119.632Z" fill="white"/>
</svg>
