<svg id="Capa_1" enable-background="new 0 0 512 512" height="512" viewBox="0 0 512 512" width="512" xmlns="http://www.w3.org/2000/svg"><g><path d="m506.469 29.902c-.127-5.007-.884-10.542-5.531-13.632-5.313-3.528-11.438-1.142-17.361 1.172-14.226 5.55-28.625 9.157-45.314 11.353-4.106.54-6.998 4.307-6.457 8.414.54 4.106 4.307 7 8.414 6.457 17.918-2.356 33.428-6.249 48.811-12.25.548-.214 1.478-.577 2.449-.932.296 12.426-2.977 22.044-10.004 29.398-11.339 11.866-33.064 18.182-64.574 18.771-4.141.078-7.436 3.498-7.358 7.64.077 4.094 3.419 7.359 7.496 7.359.048 0 .096 0 .144-.001 17.649-.33 32.531-2.329 44.826-6.036.211 10.17-2.296 18.273-7.607 24.585-3.58 4.256-8.54 7.78-14.838 10.569-.059.027-.12.051-.178.08-10.937 4.8-25.892 7.397-44.736 7.742-4.142.076-7.437 3.495-7.361 7.637.075 4.095 3.418 7.362 7.496 7.362.047 0 .094 0 .141-.001 16.014-.293 29.563-2.096 40.79-5.441-.532 7.188-3.088 13.779-7.663 19.673-10.008 12.895-27.998 20.22-42.062 22.004-1.703-3.15-3.624-6.248-5.759-9.265-9.616-13.631-24.409-25.285-39.583-31.179-16.583-6.412-30.362-5.159-37.813 3.441-6.921 8.023-6.609 21.462-3.619 32.716-6.28-1.001-12.663-2.15-19.108-3.431v-58.37c23.295-4.101 43.414-16.776 57.171-36.185l.305-.429c18.936-26.292 40.161-29.953 68.079-32.254 4.128-.34 7.198-3.963 6.858-8.091-.341-4.128-3.952-7.206-8.091-6.858-29.859 2.461-56.415 7.052-79.017 38.436l-.373.522c-10.913 15.398-26.659 25.698-44.933 29.577v-20.327c11.796-7.836 19.593-21.242 19.593-36.441-.002-24.089-19.6-43.687-43.688-43.687-24.103 0-43.714 19.598-43.714 43.687 0 15.193 7.795 28.595 19.592 36.432v20.337c-18.203-3.875-33.936-14.158-44.898-29.531l-.403-.563c-24.682-34.279-53.391-36.48-86.633-39.029-20.945-1.606-44.685-3.427-71.505-13.89-5.929-2.314-12.06-4.707-17.383-1.17-4.655 3.094-5.412 8.625-5.539 13.617-.441 16.49 4.318 30.067 14.148 40.354 4.295 4.495 9.503 8.325 15.645 11.513-1.467 16.336 2.151 29.817 10.818 40.113 4.026 4.782 9.056 8.827 15.129 12.15-.753 12.948 2.999 25.045 10.994 35.267 12.388 15.841 32.129 24.034 47.64 26.81-3.963 12.381-4.588 24.894-1.499 35.93 4.918 17.572 18.3 31.202 39.769 40.508l38.973 16.915c-12.003 6.372-22.103 13.313-30.121 20.733-3.04 2.813-3.225 7.559-.411 10.599 1.479 1.598 3.489 2.406 5.507 2.406 1.822 0 3.649-.66 5.092-1.995 9.357-8.659 22.125-16.694 37.979-23.911l21.963 9.532-16.726 7.263c-25.786 11.179-37.92 23.085-37.095 36.398.805 12.997 14.147 23.656 38.582 30.823l15.208 4.467c.033.01.068.02.101.03l74.976 22.021c24.335 7.135 39.199 21.748 40.78 40.092 1.23 14.286-6.178 27.937-18.437 33.968-12.226 6.016-20.121 5.929-22.23 5.14.07-1.031.699-4.188 5.137-10.365 9.696-13.446 12.765-24.799 9.381-34.706-3.22-9.428-12.082-16.349-26.338-20.57l-91.121-27.021c-1.849-.549-5.939-1.916-6.218-1.994-29.32-10.125-45.049-26.501-42.343-44.5.615-4.097-2.206-7.916-6.302-8.532-4.116-.609-7.916 2.207-8.532 6.302-3.199 21.284 9.524 40.307 34.761 53.443-21.535 10.321-34.933 27.372-36.672 47.547-1.759 20.398 8.995 39.976 26.759 48.715 8.191 4.03 17.678 7.073 25.817 7.073 5.986-.001 11.246-1.646 14.725-5.756 3.952-4.668 6.353-13.447-4.66-28.775-6.551-9.084-9.023-16.176-7.349-21.076 1.942-5.686 10.005-9.145 16.431-11.046l16.099-4.773v56.894c0 13.301 10.821 24.122 24.122 24.122 13.285 0 24.093-10.821 24.093-24.122v-56.903l16.129 4.783c6.413 1.898 14.465 5.354 16.404 11.036 1.675 4.903-.799 11.997-7.359 21.096-11.005 15.317-8.604 24.097-4.652 28.765 3.479 4.11 8.736 5.756 14.724 5.756 8.14 0 17.626-3.043 25.817-7.073 17.764-8.738 28.518-28.315 26.76-48.715-1.743-20.222-15.201-37.307-36.824-47.62 21.388-11.379 33.708-27.406 34.449-45.555.95-23.253-17.008-46.132-49.87-64.348l38.165-16.562c21.459-9.307 34.831-22.934 39.747-40.503 3.091-11.05 2.461-23.579-1.512-35.971 15.633-2.874 35.506-11.18 47.818-27.042 7.875-10.147 11.567-22.149 10.824-34.993 6.085-3.327 11.123-7.379 15.154-12.17 8.662-10.297 12.273-23.774 10.798-40.101 6.141-3.187 11.348-7.017 15.642-11.511 9.83-10.287 14.59-23.864 14.149-40.343zm-294.935 391.473c-14.273 4.223-23.144 11.146-26.366 20.578-3.384 9.906-.316 21.257 9.37 34.688 4.444 6.187 5.073 9.345 5.145 10.376-2.108.788-10.004.875-22.231-5.14-12.258-6.031-19.667-19.682-18.436-33.968 1.581-18.344 16.445-32.957 40.814-40.103l1.177-.351c1.348.438 28.628 8.552 28.628 8.552zm53.573 66.503c0 5.03-4.079 9.122-9.093 9.122-5.03 0-9.122-4.092-9.122-9.122v-61.341l9.125-2.705 9.09 2.696zm41.374-294.085c3.859 5.338 10.231 11.255 20.6 14.753 10.552 3.56 13.453 7.068 13.513 8.427.141 3.222-7.618 11.245-25.31 18.998l-35.177 15.42v-61.98c8.954 1.729 17.779 3.189 26.374 4.382zm-50.467-178.793c15.817 0 28.686 12.869 28.686 28.687 0 15.833-12.868 28.715-28.686 28.715-15.833 0-28.714-12.882-28.714-28.715 0-15.818 12.881-28.687 28.714-28.687zm0 72.401c3.118 0 6.158-.335 9.093-.959v22.763.029 70.958.05 77.725l-9.111 3.994-9.104-3.991v-77.74c0-.015 0-.03 0-.045v-70.951c0-.01 0-.019 0-.029v-22.768c2.944.627 5.994.964 9.122.964zm-50.496 106.39c8.692-1.205 17.519-2.66 26.374-4.373v61.976l-35.175-15.421c-17.68-7.756-25.433-15.782-25.291-19.004.06-1.357 2.957-4.864 13.485-8.42 10.363-3.485 16.737-9.402 20.607-14.758zm-121.436-33.744c-4.662-5.961-7.263-12.628-7.797-19.9 11.227 3.347 24.777 5.15 40.792 5.444.047.001.094.001.141.001 4.078 0 7.421-3.269 7.496-7.362.075-4.142-3.22-7.561-7.361-7.637-29.828-.546-49.925-6.73-59.732-18.381-5.314-6.314-7.826-14.419-7.621-24.594 12.293 3.706 27.174 5.703 44.819 6.034.048.001.096.001.144.001 4.077 0 7.419-3.267 7.496-7.359.077-4.142-3.218-7.562-7.358-7.64-31.51-.589-53.235-6.904-64.574-18.771-7.027-7.354-10.3-16.973-10.003-29.408.981.357 1.925.726 2.479.942 28.897 11.275 53.819 13.186 75.807 14.872 31.93 2.448 54.999 4.217 75.63 32.869l.341.476c13.809 19.365 33.907 32.011 57.111 36.105v58.376c-6.392 1.274-12.772 2.421-19.105 3.428 2.989-11.246 3.304-24.69-3.62-32.715-7.427-8.616-21.203-9.87-37.794-3.442-15.179 5.885-29.984 17.54-39.604 31.177-2.138 3.021-4.061 6.124-5.765 9.278-13.92-1.662-31.823-8.88-41.922-21.794zm181.025 158.899v54.059l-9.099 2.674-9.116-2.677v-54.059l9.101-3.952zm20.493 8.895c21.136 9.163 28.369 17.223 28.091 21.709-.289 4.661-9.008 11.836-27.838 17.359l-5.746 1.688v-43.141zm-87.292 21.709c-.277-4.487 6.956-12.546 28.095-21.71l5.489-2.384v43.14l-5.748-1.688c-18.828-5.523-27.547-12.698-27.836-17.358zm152.259 3.286c-.644 15.745-15.16 29.833-39.943 38.868l-27.991-8.215 7.446-2.188c24.437-7.168 37.778-17.827 38.584-30.824.824-13.313-11.31-25.22-37.093-36.397l-127.425-55.306c-17.123-7.422-27.652-17.781-31.293-30.789-3.892-13.907.283-31.39 11.168-46.767.003-.003.005-.007.008-.01 7.984-11.319 20.233-20.978 32.767-25.837 9.561-3.704 18.201-4.013 21.014-.748 3.615 4.19 2.059 18.886-2.959 28.05-2.078 3.759-6.319 8.832-14.728 11.66-15.3 5.165-23.268 12.56-23.681 21.976-.654 14.898 18.265 26.386 34.252 33.399l101.271 44.399c37.525 16.444 59.433 38.398 58.603 58.729zm28.584-124.844c-3.639 13.006-14.159 23.362-31.271 30.784l-49.828 21.624c-.022-.01-.044-.02-.066-.03l-23.311-10.22 46.629-20.441c15.996-7.009 34.928-18.492 34.274-33.394-.413-9.42-8.388-16.815-23.704-21.982-8.41-2.837-12.649-7.906-14.709-11.631-5.032-9.193-6.589-23.889-2.984-28.067 2.873-3.315 11.335-3.019 21.046.735 12.521 4.863 24.763 14.523 32.753 25.849 10.886 15.379 15.062 32.864 11.171 46.773z"/></g></svg>