<svg id="Capa_1" enable-background="new 0 0 512 512" height="512" viewBox="0 0 512 512" width="512" xmlns="http://www.w3.org/2000/svg"><g id="XMLID_1183_"><g id="XMLID_500_"><path id="XMLID_1135_" d="m215.5 216c0 5.523 4.477 10 10 10h61c5.522 0 10-4.477 10-10s-4.478-10-10-10h-61c-5.523 0-10 4.477-10 10z"/><path id="XMLID_1161_" d="m286.5 254h-61c-5.523 0-10 4.477-10 10s4.477 10 10 10h61c5.522 0 10-4.477 10-10s-4.478-10-10-10z"/><path id="XMLID_1190_" d="m286.5 302h-61c-5.523 0-10 4.477-10 10s4.477 10 10 10h61c5.522 0 10-4.477 10-10s-4.478-10-10-10z"/><path id="XMLID_1602_" d="m426 189.898h-16.218c-26.285-.135-50.989-10.439-69.563-29.013-10.501-10.501-22.659-18.838-36.138-24.781-5.053-2.226-10.956.062-13.185 5.117-2.228 5.053.062 10.956 5.116 13.184 11.205 4.939 21.32 11.878 30.064 20.622 19.965 19.964 45.819 31.979 73.654 34.412v12.831c0 79.253-64.477 143.73-143.73 143.73s-143.73-64.477-143.73-143.73v-12.831c27.835-2.433 53.689-14.447 73.654-34.412 8.745-8.745 18.86-15.683 30.064-20.623 5.054-2.228 7.344-8.131 5.116-13.184-2.229-5.055-8.131-7.344-13.185-5.117-13.478 5.942-25.636 14.279-36.139 24.781-18.574 18.575-43.278 28.878-69.563 29.013h-16.217c-47.421 0-86 38.58-86 86s38.579 86 86 86h84.58c24.884 15.28 54.14 24.103 85.42 24.103s60.536-8.823 85.42-24.103h84.58c47.421 0 86-38.58 86-86s-38.579-85.999-86-85.999zm-340 151.999c-36.393 0-66-29.607-66-66s29.607-66 66-66h6.27v12.372c0 47.163 20.052 89.724 52.069 119.628zm340 0h-58.339c32.017-29.904 52.069-72.465 52.069-119.628v-12.372h6.27c36.393 0 66 29.607 66 66s-29.607 66-66 66z"/><path id="XMLID_1636_" d="m256 146c2.63 0 5.21-1.07 7.069-2.93 1.86-1.86 2.931-4.44 2.931-7.07s-1.07-5.21-2.931-7.07c-1.859-1.86-4.439-2.93-7.069-2.93s-5.21 1.07-7.07 2.93-2.93 4.44-2.93 7.07 1.069 5.21 2.93 7.07c1.86 1.86 4.44 2.93 7.07 2.93z"/></g></g></svg>