<svg id="Capa_1" enable-background="new 0 0 512 512" height="512" viewBox="0 0 512 512" width="512" xmlns="http://www.w3.org/2000/svg"><g><path d="m499.681 377.324h-30.372c7.415-6.251 13.026-15.065 15.984-27.504 1.95-8.208 1.063-15.872.125-23.987-1.078-9.311-2.192-18.938.605-31.412v-.001c2.15-9.593.585-16.792-4.651-21.398-6.338-5.575-16.69-5.811-30.771-.698-4.462 1.623-8.456 4.073-11.852 7.195-8.418-3.175-17.487-4.344-26.547-3.381-16.423 1.752-31.621 11.605-41.302 25.933-9.861-6.634-21.936-11.916-35.434-15.442-4.012-1.049-8.105 1.354-9.152 5.361-1.047 4.008 1.353 8.105 5.361 9.152 12.589 3.288 23.637 8.222 32.319 14.385-.232.628-.457 1.26-.669 1.897-2.473 7.52-3.373 15.301-2.601 22.498 1.576 14.79 7.763 27.784 17.283 37.401h-73.39v-23.325h19.939c4.142 0 7.5-3.357 7.5-7.5s-3.358-7.5-7.5-7.5h-86.327v-28.028c.901-.397 1.841-.872 2.833-1.452 14.54-8.498 35.401-13.164 57.236-12.81.042.001.083.001.125.001 4.085 0 7.429-3.277 7.497-7.377.068-4.142-3.235-7.555-7.376-7.622-8.647-.138-17.069.424-25.108 1.615v-39.863c6.647-4.86 12.924-11.149 17.792-19.591 7.17-12.443 7.456-19.258 7.975-31.629.083-1.98.174-4.148.301-6.56.004-.067-.001-.133 0-.2.002-.065.01-.129.01-.195v-18.397c0-21.814-17.747-39.562-39.56-39.562h-2.622c11.11-11.358 18.541-26.087 18.541-39.329v-15.391c0-19.334-6.191-35.762-17.904-47.506-10.494-10.522-24.616-16.449-39.764-16.688-.079-.002-.158-.002-.237 0-15.149.239-29.275 6.166-39.776 16.687-11.724 11.746-17.92 28.174-17.92 47.508v15.391c0 13.237 7.432 27.966 18.553 39.329h-2.635c-19.445 0-29.021 11.887-34.535 20.831l-43.67 70.919c-4.939-8.869-17.183-27.944-31.661-29.053-4.03-.305-9.083-.182-12.452 3.55-3.545 3.929-2.655 8.847-2.006 12.438l10.552 60.169c.936 5.335 1.674 9.549 5.197 12.411 3.69 2.999 7.935 2.546 12.853 2.018 1.009-.107 2.145-.229 3.433-.347 20.815-1.919 36.605 4.134 42.425 6.822 6.301 2.914 11.88 6.084 16.82 9.358v40.198c-.233 0-.453.002-.688.002h-60.35c-8.821 0-9.059-.502-10.197-2.901-1.468-3.11-14.87-30.43-33.138-31.829-4.041-.313-9.11-.187-12.478 3.558-3.547 3.942-2.673 8.689-1.971 12.503l10.391 59.349h-22.424c-6.777-.001-12.291 5.513-12.291 12.29v58.792c0 6.793 5.514 12.319 12.291 12.319h18.692v13.931c0 15.952 12.978 28.931 28.93 28.931h392.146c15.952 0 28.93-12.979 28.93-28.931v-13.931h18.692c6.792 0 12.319-5.526 12.319-12.319v-58.792c0-6.777-5.526-12.291-12.319-12.291zm-52.629-44.59c-6.033-13.112-7.238-25.405-3.395-34.615 2.353-5.637 6.526-9.682 12.067-11.696 5.963-2.165 9.989-2.772 12.492-2.772 1.903 0 2.926.352 3.249.635.257.227.998 2.053-.079 6.856v-.001c-3.354 14.955-1.976 26.855-.87 36.418.817 7.06 1.522 13.156.183 18.793-4.256 17.897-14.623 26.52-39.062 29.598.064-.055.129-.11.193-.166 20.744-17.907 19.725-33.3 15.222-43.05zm-71.413 5.596c-.547-5.101.122-10.709 1.926-16.194 4.674-14.046 17.689-29.104 36.228-31.082 5.419-.579 10.839-.106 16.007 1.326-5.46 13.119-4.174 29.674 3.629 46.633 7.341 15.895-20.598 32.802-29.459 37.67-15.663-5.942-26.416-20.371-28.331-38.353zm-86.022 15.669v23.325h-65.278c-5.924-.565-10.573-5.566-10.573-11.635 0-6.446 5.244-11.69 11.69-11.69zm-31.181-67.588c-9.193 2.472-17.623 5.877-24.945 10.156-.144.084-.277.161-.402.232-.835-.986-1.916-2.373-2.915-3.653-1.22-1.564-2.738-3.512-4.561-5.747-3.887-4.736-9.447-10.428-15.183-15.647l41.309-16.666c2.156-.872 4.405-1.838 6.696-2.904v34.229zm-65.136-23.921c-2.286.915-4.808.876-7.102-.105-2.292-.982-4.058-2.782-4.978-5.088-.92-2.286-.887-4.809.093-7.102.983-2.3 2.79-4.072 5.086-4.989.067-.026.133-.055.2-.083l37.889-16.417 8.908 17.608zm24.786-239.077c18.661.347 38.567 13.09 42.201 40.142-16.386-3.124-49.812-9.815-53.698-10.822-.002-.001-.003-.001-.005-.002-2.177-.562-4.189-.807-6.06-.807-7.092 0-12.138 3.51-16.366 6.451-2.594 1.805-5.106 3.552-8.253 4.83 3.761-26.811 23.589-39.446 42.181-39.792zm-42.815 64.587v-8.939c8.035-1.837 13.349-5.518 17.453-8.373 4.92-3.422 6.5-4.368 10.105-3.435v-.001c2.692.696 41.589 8.654 58.043 11.682v9.066c0 12.891-12.305 31.783-29.263 39.855-.237.094-.469.198-.693.314-.93.423-1.869.822-2.824 1.177-3.898 1.428-6.984 2.064-10.006 2.064-3 0-6.189-.656-9.999-2.052-.912-.339-1.818-.724-2.719-1.135-.24-.129-.49-.243-.744-.346-15.757-7.563-29.353-25.655-29.353-39.877zm60.119 54.586v2.25c0 10.917-7.762 19.799-17.303 19.799-9.557 0-17.332-8.882-17.332-19.799v-2.253c.709.298 1.421.581 2.138.848 5.55 2.033 10.378 2.98 15.194 2.98 4.796 0 9.616-.947 15.199-2.992.704-.262 1.406-.541 2.104-.833zm-80.964 13.443c5.998-9.73 12.304-13.699 21.764-13.699h9.564v2.507c0 19.188 14.504 34.799 32.332 34.799 17.812 0 32.303-15.61 32.303-34.799v-2.507h9.564c13.542 0 24.56 11.019 24.56 24.562v18.207c-.124 2.386-.215 4.544-.298 6.516-.5 11.916-.651 15.512-5.984 24.767-6.067 10.52-15.358 17.828-30.883 24.285l-9.142-18.072c3.492-1.827 5.978-3.758 9.488-7.44.373-.39.701-.819.981-1.28l9.042-14.883c2.151-3.54 1.025-8.153-2.515-10.304-3.539-2.153-8.153-1.025-10.304 2.515l-8.611 14.173c-2.862 2.937-4.166 3.66-8.484 5.546l-47.077 20.399c-4.22 1.708-7.779 4.526-10.413 8.123-6.697-3.691-13.919-6.397-21.374-8.418l15.271-24.827c2.17-3.528 1.069-8.147-2.459-10.318-3.528-2.169-8.147-1.068-10.317 2.459l-18.079 29.391c-7.246-1.162-14.518-1.898-21.566-2.459zm-49.239 109.746c-6.738-.886-14.368-1.211-22.656-.447-1.369.125-4.511.461-4.932.504-.154-.804-10.596-60.364-10.596-60.364 5.925 2.52 14.85 14.187 19.748 24.469 2.785 5.894 5.744 8.391 9.707 9.338 4.668.601 8.067.501 9.606.607 1.984.142 3.998.299 6.022.467zm52.959 42.599c11.768 11.27 16.841 21.752 17.476 25.7-2.264 1.157-8.124 1.926-17.476 2.302zm-62.925 43.272h47.237c29.113 0 39.133-1.719 44.67-7.661 1.804-1.937 3.879-5.323 3.518-10.441-.947-13.842-20.043-42.506-58.025-60.072-2.636-1.218-6.991-3.016-12.717-4.651l7.281-26.837c13.738 1.92 27.323 5.274 38.367 12.043.02 3.001.597 5.997 1.747 8.852 2.4 6.011 7.014 10.731 12.992 13.293 3.087 1.323 6.339 1.986 9.592 1.986 1.521 0 3.043-.146 4.547-.436 7.017 5.779 14.865 13.437 19.575 19.177 1.705 2.09 3.105 3.886 4.341 5.471 1.635 2.098 3.21 4.11 4.884 5.781v30.949c-13.678 1.136-24.463 12.624-24.463 26.59 0 4.169.962 8.116 2.674 11.635h-106.22zm-36.869-11.487c5.052 10.652 13.783 11.425 21.869 11.481v25.684h-30.278l-10.5-60.008c5.968 2.342 14.364 13.215 18.909 22.843zm438.648 105.568h-223.099c-4.142 0-7.5 3.357-7.5 7.5s3.358 7.5 7.5 7.5h192.088v13.931c0 7.682-6.249 13.931-13.93 13.931h-392.146c-7.681 0-13.93-6.249-13.93-13.931v-13.931h194.922c4.142 0 7.5-3.357 7.5-7.5s-3.358-7.5-7.5-7.5h-225.905v-53.402h28.611c.007 0 .015.001.022.001.005 0 453.367-.001 453.367-.001z"/></g></svg>