<svg id="Capa_1" enable-background="new 0 0 512 512" height="512" viewBox="0 0 512 512" width="512" xmlns="http://www.w3.org/2000/svg"><g id="XMLID_1575_"><g id="XMLID_1265_"><path id="XMLID_214_" d="m256.138 512c-.684 0-1.368-.07-2.041-.21l-.208-.044c-60.82-12.663-115.905-46.181-155.103-94.381-39.199-48.2-60.786-108.959-60.786-171.086v-38.279c0-5.523 4.477-10 10-10s10 4.477 10 10v38.279c0 117.725 83.216 220.667 198.133 245.499 114.781-24.928 197.867-127.814 197.867-245.442v-170.26l-198-55.688-198 55.688v41.924c0 5.523-4.477 10-10 10s-10-4.477-10-10v-49.5c0-4.48 2.979-8.414 7.292-9.626l208-58.5c1.771-.498 3.645-.498 5.415 0l208 58.5c4.314 1.212 7.293 5.146 7.293 9.626v177.836c0 62.114-21.579 122.864-60.764 171.059-39.184 48.195-94.251 81.719-155.058 94.395-.672.14-1.356.21-2.04.21z"/></g><g id="XMLID_1292_"><g id="XMLID_1294_"><path id="XMLID_215_" d="m256.111 462.731c-.837 0-1.674-.105-2.492-.315-47.369-12.188-90.15-40.368-120.464-79.348-30.408-39.103-47.155-87.682-47.155-136.789v-141.417c0-4.48 2.98-8.414 7.293-9.626l160-45c1.771-.498 3.645-.498 5.415 0l160 45c4.314 1.213 7.293 5.146 7.293 9.626v141.474c0 49.061-16.723 97.606-47.087 136.693-30.268 38.962-72.99 67.154-120.299 79.383-.822.213-1.663.319-2.504.319zm-150.111-350.293v133.841c0 91.876 61.59 172.146 150.105 196.108 88.393-24.035 149.895-104.283 149.895-196.051v-133.898l-150-42.187z"/></g></g><g id="XMLID_1321_"><path id="XMLID_211_" d="m278 307.93h-44c-5.523 0-10-4.477-10-10v-24h-24c-5.523 0-10-4.477-10-10v-44c0-5.523 4.477-10 10-10h24v-24c0-5.523 4.477-10 10-10h44c5.522 0 10 4.477 10 10v24h24c5.522 0 10 4.477 10 10v44c0 5.523-4.478 10-10 10h-24v24c0 5.523-4.478 10-10 10zm-34-20h24v-24c0-5.523 4.478-10 10-10h24v-24h-24c-5.522 0-10-4.477-10-10v-24h-24v24c0 5.523-4.477 10-10 10h-24v24h24c5.523 0 10 4.477 10 10z"/></g><g id="XMLID_1550_"><path id="XMLID_210_" d="m48 173c-2.63 0-5.21-1.07-7.07-2.93s-2.93-4.44-2.93-7.07 1.07-5.21 2.93-7.07 4.44-2.93 7.07-2.93 5.21 1.07 7.07 2.93 2.93 4.44 2.93 7.07-1.07 5.21-2.93 7.07-4.44 2.93-7.07 2.93z"/></g><g id="XMLID_2814_"><path id="XMLID_207_" d="m256 361.597c-65.984 0-119.667-53.683-119.667-119.667s53.683-119.667 119.667-119.667 119.667 53.682 119.667 119.667-53.683 119.667-119.667 119.667zm0-219.334c-54.956 0-99.667 44.71-99.667 99.667 0 54.956 44.71 99.667 99.667 99.667s99.667-44.711 99.667-99.667c0-54.957-44.71-99.667-99.667-99.667z"/></g></g></svg>